{
  "asset": {
    "generator": "OpenSceneGraph 3.5.6",
    "version": "2.0"
  },
  "accessors": [
    {
      "type": "VEC3",
      "componentType": 5126,
      "count": 1352,
      "bufferView": 0,
      "byteOffset": 0
    },
    {
      "type": "VEC2",
      "componentType": 5126,
      "count": 1352,
      "bufferView": 0,
      "byteOffset": 12
    },
    {
      "type": "VEC3",
      "componentType": 5126,
      "count": 1352,
      "max": [
        1.099999189376831,
        0.6000916361808777,
        2.600191354751587
      ],
      "min": [
        -1.2000099420547485,
        -0.6999089121818542,
        1.1998000144958496
      ],
      "bufferView": 0,
      "byteOffset": 20
    },
    {
      "type": "SCALAR",
      "componentType": 5123,
      "count": 2580,
      "bufferView": 1,
      "byteOffset": 0
    },
    {
      "type": "SCALAR",
      "componentType": 5123,
      "count": 2196,
      "bufferView": 1,
      "byteOffset": 5160
    },
    {
      "type": "SCALAR",
      "componentType": 5123,
      "count": 2376,
      "bufferView": 1,
      "byteOffset": 9552
    },
    {
      "type": "SCALAR",
      "componentType": 5123,
      "count": 2196,
      "bufferView": 1,
      "byteOffset": 14304
    },
    {
      "type": "SCALAR",
      "componentType": 5123,
      "count": 2580,
      "bufferView": 1,
      "byteOffset": 18696
    },
    {
      "type": "SCALAR",
      "componentType": 5123,
      "count": 2196,
      "bufferView": 1,
      "byteOffset": 23856
    },
    {
      "type": "SCALAR",
      "componentType": 5123,
      "count": 2376,
      "bufferView": 1,
      "byteOffset": 28248
    },
    {
      "type": "SCALAR",
      "componentType": 5123,
      "count": 2196,
      "bufferView": 1,
      "byteOffset": 33000
    },
    {
      "type": "VEC3",
      "componentType": 5126,
      "count": 1142,
      "bufferView": 2,
      "byteOffset": 0
    },
    {
      "type": "VEC2",
      "componentType": 5126,
      "count": 1142,
      "bufferView": 2,
      "byteOffset": 12
    },
    {
      "type": "VEC3",
      "componentType": 5126,
      "count": 1142,
      "max": [
        1.099999189376831,
        1.0001863241195679,
        2.299800395965576
      ],
      "min": [
        -1.2000099420547485,
        -1.1000100374221802,
        1.1998000144958496
      ],
      "bufferView": 2,
      "byteOffset": 20
    },
    {
      "type": "VEC3",
      "componentType": 5126,
      "count": 1254,
      "bufferView": 3,
      "byteOffset": 0
    },
    {
      "type": "VEC2",
      "componentType": 5126,
      "count": 1254,
      "bufferView": 3,
      "byteOffset": 12
    },
    {
      "type": "VEC3",
      "componentType": 5126,
      "count": 1254,
      "max": [
        1.099999189376831,
        0.6000916361808777,
        2.299800157546997
      ],
      "min": [
        -1.2000099420547485,
        -0.6999089121818542,
        0.7999950051307678
      ],
      "bufferView": 3,
      "byteOffset": 20
    },
    {
      "type": "VEC3",
      "componentType": 5126,
      "count": 1142,
      "bufferView": 4,
      "byteOffset": 0
    },
    {
      "type": "VEC2",
      "componentType": 5126,
      "count": 1142,
      "bufferView": 4,
      "byteOffset": 12
    },
    {
      "type": "VEC3",
      "componentType": 5126,
      "count": 1142,
      "max": [
        1.099999189376831,
        1.0001863241195679,
        2.299800395965576
      ],
      "min": [
        -1.2000099420547485,
        -1.1000100374221802,
        1.1998000144958496
      ],
      "bufferView": 4,
      "byteOffset": 20
    },
    {
      "type": "VEC3",
      "componentType": 5126,
      "count": 1352,
      "bufferView": 5,
      "byteOffset": 0
    },
    {
      "type": "VEC2",
      "componentType": 5126,
      "count": 1352,
      "bufferView": 5,
      "byteOffset": 12
    },
    {
      "type": "VEC3",
      "componentType": 5126,
      "count": 1352,
      "max": [
        1.099999189376831,
        0.6000916361808777,
        2.600191354751587
      ],
      "min": [
        -1.2000099420547485,
        -0.6999089121818542,
        1.1998000144958496
      ],
      "bufferView": 5,
      "byteOffset": 20
    },
    {
      "type": "VEC3",
      "componentType": 5126,
      "count": 1142,
      "bufferView": 6,
      "byteOffset": 0
    },
    {
      "type": "VEC2",
      "componentType": 5126,
      "count": 1142,
      "bufferView": 6,
      "byteOffset": 12
    },
    {
      "type": "VEC3",
      "componentType": 5126,
      "count": 1142,
      "max": [
        1.099999189376831,
        1.0001863241195679,
        2.299800395965576
      ],
      "min": [
        -1.2000099420547485,
        -1.1000100374221802,
        1.1998000144958496
      ],
      "bufferView": 6,
      "byteOffset": 20
    },
    {
      "type": "VEC3",
      "componentType": 5126,
      "count": 1254,
      "bufferView": 7,
      "byteOffset": 0
    },
    {
      "type": "VEC2",
      "componentType": 5126,
      "count": 1254,
      "bufferView": 7,
      "byteOffset": 12
    },
    {
      "type": "VEC3",
      "componentType": 5126,
      "count": 1254,
      "max": [
        1.099999189376831,
        0.6000916361808777,
        2.299800157546997
      ],
      "min": [
        -1.2000099420547485,
        -0.6999089121818542,
        0.7999950051307678
      ],
      "bufferView": 7,
      "byteOffset": 20
    },
    {
      "type": "VEC3",
      "componentType": 5126,
      "count": 1142,
      "bufferView": 8,
      "byteOffset": 0
    },
    {
      "type": "VEC2",
      "componentType": 5126,
      "count": 1142,
      "bufferView": 8,
      "byteOffset": 12
    },
    {
      "type": "VEC3",
      "componentType": 5126,
      "count": 1142,
      "max": [
        1.099999189376831,
        1.0001863241195679,
        2.299800395965576
      ],
      "min": [
        -1.2000099420547485,
        -1.1000100374221802,
        1.1998000144958496
      ],
      "bufferView": 8,
      "byteOffset": 20
    },
    {
      "type": "SCALAR",
      "componentType": 5126,
      "count": 2,
      "max": [
        1
      ],
      "min": [
        0.875
      ],
      "bufferView": 9,
      "byteOffset": 0
    },
    {
      "type": "VEC3",
      "componentType": 5126,
      "count": 2,
      "bufferView": 9,
      "byteOffset": 8
    },
    {
      "type": "SCALAR",
      "componentType": 5126,
      "count": 3,
      "max": [
        1
      ],
      "min": [
        0.75
      ],
      "bufferView": 9,
      "byteOffset": 32
    },
    {
      "type": "VEC3",
      "componentType": 5126,
      "count": 3,
      "bufferView": 9,
      "byteOffset": 44
    },
    {
      "type": "SCALAR",
      "componentType": 5126,
      "count": 3,
      "max": [
        1
      ],
      "min": [
        0.625
      ],
      "bufferView": 9,
      "byteOffset": 80
    },
    {
      "type": "VEC3",
      "componentType": 5126,
      "count": 3,
      "bufferView": 9,
      "byteOffset": 92
    },
    {
      "type": "SCALAR",
      "componentType": 5126,
      "count": 3,
      "max": [
        1
      ],
      "min": [
        0.5
      ],
      "bufferView": 9,
      "byteOffset": 128
    },
    {
      "type": "VEC3",
      "componentType": 5126,
      "count": 3,
      "bufferView": 9,
      "byteOffset": 140
    },
    {
      "type": "SCALAR",
      "componentType": 5126,
      "count": 3,
      "max": [
        1
      ],
      "min": [
        0.375
      ],
      "bufferView": 9,
      "byteOffset": 176
    },
    {
      "type": "VEC3",
      "componentType": 5126,
      "count": 3,
      "bufferView": 9,
      "byteOffset": 188
    },
    {
      "type": "SCALAR",
      "componentType": 5126,
      "count": 3,
      "max": [
        1
      ],
      "min": [
        0.25
      ],
      "bufferView": 9,
      "byteOffset": 224
    },
    {
      "type": "VEC3",
      "componentType": 5126,
      "count": 3,
      "bufferView": 9,
      "byteOffset": 236
    },
    {
      "type": "SCALAR",
      "componentType": 5126,
      "count": 3,
      "max": [
        1
      ],
      "min": [
        0.125
      ],
      "bufferView": 9,
      "byteOffset": 272
    },
    {
      "type": "VEC3",
      "componentType": 5126,
      "count": 3,
      "bufferView": 9,
      "byteOffset": 284
    },
    {
      "type": "SCALAR",
      "componentType": 5126,
      "count": 3,
      "max": [
        1
      ],
      "min": [
        0
      ],
      "bufferView": 9,
      "byteOffset": 320
    },
    {
      "type": "VEC3",
      "componentType": 5126,
      "count": 3,
      "bufferView": 9,
      "byteOffset": 332
    }
  ],
  "bufferViews": [
    {
      "buffer": 0,
      "byteOffset": 0,
      "byteLength": 43264,
      "byteStride": 32,
      "target": 34962
    },
    {
      "buffer": 0,
      "byteOffset": 43264,
      "byteLength": 37392,
      "target": 34963
    },
    {
      "buffer": 0,
      "byteOffset": 80656,
      "byteLength": 36544,
      "byteStride": 32,
      "target": 34962
    },
    {
      "buffer": 0,
      "byteOffset": 117200,
      "byteLength": 40128,
      "byteStride": 32,
      "target": 34962
    },
    {
      "buffer": 0,
      "byteOffset": 157328,
      "byteLength": 36544,
      "byteStride": 32,
      "target": 34962
    },
    {
      "buffer": 0,
      "byteOffset": 193872,
      "byteLength": 43264,
      "byteStride": 32,
      "target": 34962
    },
    {
      "buffer": 0,
      "byteOffset": 237136,
      "byteLength": 36544,
      "byteStride": 32,
      "target": 34962
    },
    {
      "buffer": 0,
      "byteOffset": 273680,
      "byteLength": 40128,
      "byteStride": 32,
      "target": 34962
    },
    {
      "buffer": 0,
      "byteOffset": 313808,
      "byteLength": 36544,
      "byteStride": 32,
      "target": 34962
    },
    {
      "buffer": 0,
      "byteOffset": 350352,
      "byteLength": 368
    }
  ],
  "samplers": [
    {
      "wrapS": 10497,
      "wrapT": 10497
    }
  ],
  "textures": [
    {
      "source": 0,
      "sampler": 0
    },
    {
      "source": 1,
      "sampler": 0
    },
    {
      "source": 2,
      "sampler": 0
    }
  ],
  "images": [
    {
      "name": "Bird_Wings_Up.png",
      "mimeType": "image/png",
      "uri": "images/Bird_Wings_Up.png"
    },
    {
      "name": "Bird_Wings_Middle.png",
      "mimeType": "image/png",
      "uri": "images/Bird_Wings_Middle.png"
    },
    {
      "name": "Bird_Wings_Down.png",
      "mimeType": "image/png",
      "uri": "images/Bird_Wings_Down.png"
    }
  ],
  "buffers": [
    {
      "uri": "3D Chrome Bird Flying.bin",
      "byteLength": 350720
    }
  ],
  "materials": [
    {
      "name": "palette",
      "doubleSided": true,
      "pbrMetallicRoughness": {
        "metallicFactor": 0,
        "baseColorTexture": {
          "index": 0
        }
      },
      "extensions": {
        "KHR_materials_specular": {
          "specularFactor": 0.5,
          "specularColorFactor": [
            0,
            0,
            0
          ]
        }
      }
    },
    {
      "name": "palette_0",
      "doubleSided": true,
      "pbrMetallicRoughness": {
        "metallicFactor": 0,
        "baseColorTexture": {
          "index": 1
        }
      },
      "extensions": {
        "KHR_materials_specular": {
          "specularFactor": 0.5,
          "specularColorFactor": [
            0,
            0,
            0
          ]
        }
      }
    },
    {
      "name": "palette_1",
      "doubleSided": true,
      "pbrMetallicRoughness": {
        "metallicFactor": 0,
        "baseColorTexture": {
          "index": 2
        }
      },
      "extensions": {
        "KHR_materials_specular": {
          "specularFactor": 0.5,
          "specularColorFactor": [
            0,
            0,
            0
          ]
        }
      }
    }
  ],
  "meshes": [
    {
      "name": "GeometryNode_25",
      "primitives": [
        {
          "attributes": {
            "POSITION": 2,
            "NORMAL": 0,
            "TEXCOORD_0": 1
          },
          "mode": 4,
          "material": 0,
          "indices": 3
        }
      ]
    },
    {
      "name": "GeometryNode_46",
      "primitives": [
        {
          "attributes": {
            "POSITION": 13,
            "NORMAL": 11,
            "TEXCOORD_0": 12
          },
          "mode": 4,
          "material": 1,
          "indices": 4
        }
      ]
    },
    {
      "name": "GeometryNode_66",
      "primitives": [
        {
          "attributes": {
            "POSITION": 16,
            "NORMAL": 14,
            "TEXCOORD_0": 15
          },
          "mode": 4,
          "material": 2,
          "indices": 5
        }
      ]
    },
    {
      "name": "GeometryNode_46",
      "primitives": [
        {
          "attributes": {
            "POSITION": 19,
            "NORMAL": 17,
            "TEXCOORD_0": 18
          },
          "mode": 4,
          "material": 1,
          "indices": 6
        }
      ]
    },
    {
      "name": "GeometryNode_25",
      "primitives": [
        {
          "attributes": {
            "POSITION": 22,
            "NORMAL": 20,
            "TEXCOORD_0": 21
          },
          "mode": 4,
          "material": 0,
          "indices": 7
        }
      ]
    },
    {
      "name": "GeometryNode_46",
      "primitives": [
        {
          "attributes": {
            "POSITION": 25,
            "NORMAL": 23,
            "TEXCOORD_0": 24
          },
          "mode": 4,
          "material": 1,
          "indices": 8
        }
      ]
    },
    {
      "name": "GeometryNode_66",
      "primitives": [
        {
          "attributes": {
            "POSITION": 28,
            "NORMAL": 26,
            "TEXCOORD_0": 27
          },
          "mode": 4,
          "material": 2,
          "indices": 9
        }
      ]
    },
    {
      "name": "GeometryNode_46",
      "primitives": [
        {
          "attributes": {
            "POSITION": 31,
            "NORMAL": 29,
            "TEXCOORD_0": 30
          },
          "mode": 4,
          "material": 1,
          "indices": 10
        }
      ]
    }
  ],
  "cameras": [
    {
      "name": "Camera_0",
      "type": "perspective",
      "perspective": {
        "znear": 1.25,
        "zfar": 250,
        "yfov": 0.7853981633974483
      }
    }
  ],
  "nodes": [
    {
      "name": "sketchfab.timeframe",
      "children": [
        1,
        5,
        9,
        13,
        17,
        21,
        25,
        29
      ]
    },
    {
      "name": "MatrixTransform_20",
      "children": [
        2
      ]
    },
    {
      "name": "frame_4",
      "children": [
        3
      ]
    },
    {
      "name": "Group_24",
      "children": [
        4
      ]
    },
    {
      "name": "GeometryNode_25",
      "mesh": 0
    },
    {
      "name": "MatrixTransform_41",
      "scale": [
        1.000000013351432e-10,
        1.000000013351432e-10,
        1.000000013351432e-10
      ],
      "children": [
        6
      ]
    },
    {
      "name": "frame_7",
      "children": [
        7
      ]
    },
    {
      "name": "Group_45",
      "children": [
        8
      ]
    },
    {
      "name": "GeometryNode_46",
      "mesh": 1
    },
    {
      "name": "MatrixTransform_61",
      "scale": [
        1.000000013351432e-10,
        1.000000013351432e-10,
        1.000000013351432e-10
      ],
      "children": [
        10
      ]
    },
    {
      "name": "frame_6",
      "children": [
        11
      ]
    },
    {
      "name": "Group_65",
      "children": [
        12
      ]
    },
    {
      "name": "GeometryNode_66",
      "mesh": 2
    },
    {
      "name": "MatrixTransform_81",
      "scale": [
        1.000000013351432e-10,
        1.000000013351432e-10,
        1.000000013351432e-10
      ],
      "children": [
        14
      ]
    },
    {
      "name": "frame_7",
      "children": [
        15
      ]
    },
    {
      "name": "Group_45",
      "children": [
        16
      ]
    },
    {
      "name": "GeometryNode_46",
      "mesh": 3
    },
    {
      "name": "MatrixTransform_83",
      "scale": [
        1.000000013351432e-10,
        1.000000013351432e-10,
        1.000000013351432e-10
      ],
      "children": [
        18
      ]
    },
    {
      "name": "frame_4",
      "children": [
        19
      ]
    },
    {
      "name": "Group_24",
      "children": [
        20
      ]
    },
    {
      "name": "GeometryNode_25",
      "mesh": 4
    },
    {
      "name": "MatrixTransform_85",
      "scale": [
        1.000000013351432e-10,
        1.000000013351432e-10,
        1.000000013351432e-10
      ],
      "children": [
        22
      ]
    },
    {
      "name": "frame_7",
      "children": [
        23
      ]
    },
    {
      "name": "Group_45",
      "children": [
        24
      ]
    },
    {
      "name": "GeometryNode_46",
      "mesh": 5
    },
    {
      "name": "MatrixTransform_87",
      "scale": [
        1.000000013351432e-10,
        1.000000013351432e-10,
        1.000000013351432e-10
      ],
      "children": [
        26
      ]
    },
    {
      "name": "frame_6",
      "children": [
        27
      ]
    },
    {
      "name": "Group_65",
      "children": [
        28
      ]
    },
    {
      "name": "GeometryNode_66",
      "mesh": 6
    },
    {
      "name": "MatrixTransform_89",
      "scale": [
        1.000000013351432e-10,
        1.000000013351432e-10,
        1.000000013351432e-10
      ],
      "children": [
        30
      ]
    },
    {
      "name": "frame_7",
      "children": [
        31
      ]
    },
    {
      "name": "Group_45",
      "children": [
        32
      ]
    },
    {
      "name": "GeometryNode_46",
      "mesh": 7
    },
    {
      "name": "Light_0",
      "extensions": {
        "KHR_lights_punctual": {
          "light": 0
        }
      }
    },
    {
      "name": "Light_1",
      "extensions": {
        "KHR_lights_punctual": {
          "light": 1
        }
      }
    },
    {
      "name": "Light_2",
      "extensions": {
        "KHR_lights_punctual": {
          "light": 2
        }
      }
    },
    {
      "name": "Camera_0",
      "camera": 0
    },
    {
      "name": "Sketchfab_model",
      "translation": [
        0.05000537633895874,
        -1.2210417985916138,
        -5.292503356933594
      ],
      "rotation": [
        -0.5877852331837277,
        0,
        0,
        0.8090170082582633
      ],
      "children": [
        0,
        33,
        34,
        35,
        36
      ]
    }
  ],
  "animations": [
    {
      "name": "Animation",
      "samplers": [
        {
          "input": 32,
          "output": 33,
          "interpolation": "LINEAR"
        },
        {
          "input": 34,
          "output": 35,
          "interpolation": "LINEAR"
        },
        {
          "input": 36,
          "output": 37,
          "interpolation": "LINEAR"
        },
        {
          "input": 38,
          "output": 39,
          "interpolation": "LINEAR"
        },
        {
          "input": 40,
          "output": 41,
          "interpolation": "LINEAR"
        },
        {
          "input": 42,
          "output": 43,
          "interpolation": "LINEAR"
        },
        {
          "input": 44,
          "output": 45,
          "interpolation": "LINEAR"
        },
        {
          "input": 46,
          "output": 47,
          "interpolation": "LINEAR"
        }
      ],
      "channels": [
        {
          "sampler": 0,
          "target": {
            "node": 1,
            "path": "scale"
          }
        },
        {
          "sampler": 1,
          "target": {
            "node": 5,
            "path": "scale"
          }
        },
        {
          "sampler": 2,
          "target": {
            "node": 9,
            "path": "scale"
          }
        },
        {
          "sampler": 3,
          "target": {
            "node": 13,
            "path": "scale"
          }
        },
        {
          "sampler": 4,
          "target": {
            "node": 2,
            "path": "scale"
          }
        },
        {
          "sampler": 5,
          "target": {
            "node": 21,
            "path": "scale"
          }
        },
        {
          "sampler": 6,
          "target": {
            "node": 10,
            "path": "scale"
          }
        },
        {
          "sampler": 7,
          "target": {
            "node": 6,
            "path": "scale"
          }
        }
      ]
    }
  ],
  "scenes": [
    {
      "name": "Scene",
      "nodes": [
        37
      ]
    }
  ],
  "extensionsUsed": [
    "KHR_lights_punctual",
    "KHR_materials_specular"
  ],
  "extensions": {
    "KHR_lights_punctual": {
      "lights": [
        {
          "type": "directional",
          "color": [
            0.7806122449,
            0.7985214494,
            1
          ],
          "intensity": 0.96,
          "range": 1.1371047383,
          "name": "Light_0"
        },
        {
          "type": "directional",
          "color": [
            1,
            0.878331945,
            0.7091836735
          ],
          "range": 1.1371047383,
          "name": "Light_1"
        },
        {
          "type": "directional",
          "color": [
            0.4234693878,
            0.7352665556,
            1
          ],
          "intensity": 0.12,
          "range": 1.1371047383,
          "name": "Light_2"
        }
      ]
    }
  }
}