{
  "asset": {
    "generator": "OpenSceneGraph 3.5.6",
    "version": "2.0"
  },
  "accessors": [
    {
      "type": "VEC3",
      "componentType": 5126,
      "count": 24,
      "bufferView": 0,
      "byteOffset": 0
    },
    {
      "type": "VEC2",
      "componentType": 5126,
      "count": 24,
      "bufferView": 0,
      "byteOffset": 12
    },
    {
      "type": "VEC3",
      "componentType": 5126,
      "count": 24,
      "max": [
        0.18750052154064178,
        1.8750026226043701,
        0.18750052154064178
      ],
      "min": [
        -0.1875,
        0,
        -0.1875
      ],
      "bufferView": 0,
      "byteOffset": 20
    },
    {
      "type": "SCALAR",
      "componentType": 5123,
      "count": 36,
      "bufferView": 1,
      "byteOffset": 0
    },
    {
      "type": "SCALAR",
      "componentType": 5123,
      "count": 36,
      "bufferView": 1,
      "byteOffset": 72
    },
    {
      "type": "SCALAR",
      "componentType": 5123,
      "count": 36,
      "bufferView": 1,
      "byteOffset": 144
    },
    {
      "type": "SCALAR",
      "componentType": 5123,
      "count": 36,
      "bufferView": 1,
      "byteOffset": 216
    },
    {
      "type": "SCALAR",
      "componentType": 5123,
      "count": 36,
      "bufferView": 1,
      "byteOffset": 288
    },
    {
      "type": "SCALAR",
      "componentType": 5123,
      "count": 36,
      "bufferView": 1,
      "byteOffset": 360
    },
    {
      "type": "VEC3",
      "componentType": 5126,
      "count": 24,
      "bufferView": 2,
      "byteOffset": 0
    },
    {
      "type": "VEC2",
      "componentType": 5126,
      "count": 24,
      "bufferView": 2,
      "byteOffset": 12
    },
    {
      "type": "VEC3",
      "componentType": 5126,
      "count": 24,
      "max": [
        0.1249995008111,
        2.000000238418579,
        0.1249995008111
      ],
      "min": [
        -0.125,
        1.8125,
        -0.125
      ],
      "bufferView": 2,
      "byteOffset": 20
    },
    {
      "type": "VEC3",
      "componentType": 5126,
      "count": 24,
      "bufferView": 3,
      "byteOffset": 0
    },
    {
      "type": "VEC2",
      "componentType": 5126,
      "count": 24,
      "bufferView": 3,
      "byteOffset": 12
    },
    {
      "type": "VEC3",
      "componentType": 5126,
      "count": 24,
      "max": [
        -0.1875002384185791,
        0.9374995231628418,
        0.1249995008111
      ],
      "min": [
        -0.625,
        0.6875,
        -0.125
      ],
      "bufferView": 3,
      "byteOffset": 20
    },
    {
      "type": "VEC3",
      "componentType": 5126,
      "count": 24,
      "bufferView": 4,
      "byteOffset": 0
    },
    {
      "type": "VEC2",
      "componentType": 5126,
      "count": 24,
      "bufferView": 4,
      "byteOffset": 12
    },
    {
      "type": "VEC3",
      "componentType": 5126,
      "count": 24,
      "max": [
        0.06250026077032089,
        0.5624995231628418,
        0.1249995008111
      ],
      "min": [
        -0.125,
        0,
        -0.125
      ],
      "bufferView": 4,
      "byteOffset": 20
    },
    {
      "type": "VEC3",
      "componentType": 5126,
      "count": 24,
      "bufferView": 5,
      "byteOffset": 0
    },
    {
      "type": "VEC2",
      "componentType": 5126,
      "count": 24,
      "bufferView": 5,
      "byteOffset": 12
    },
    {
      "type": "VEC3",
      "componentType": 5126,
      "count": 24,
      "max": [
        -0.1874997466802597,
        0.4999995231628418,
        0.1249995008111
      ],
      "min": [
        -0.375,
        -0.0625,
        -0.125
      ],
      "bufferView": 5,
      "byteOffset": 20
    },
    {
      "type": "VEC3",
      "componentType": 5126,
      "count": 24,
      "bufferView": 6,
      "byteOffset": 0
    },
    {
      "type": "VEC2",
      "componentType": 5126,
      "count": 24,
      "bufferView": 6,
      "byteOffset": 12
    },
    {
      "type": "VEC3",
      "componentType": 5126,
      "count": 24,
      "max": [
        0.1249997615814209,
        0.1249995008111,
        0.1249995008111
      ],
      "min": [
        -0.3125,
        -0.125,
        -0.125
      ],
      "bufferView": 6,
      "byteOffset": 20
    }
  ],
  "bufferViews": [
    {
      "buffer": 0,
      "byteOffset": 0,
      "byteLength": 768,
      "byteStride": 32,
      "target": 34962
    },
    {
      "buffer": 0,
      "byteOffset": 768,
      "byteLength": 432,
      "target": 34963
    },
    {
      "buffer": 0,
      "byteOffset": 1200,
      "byteLength": 768,
      "byteStride": 32,
      "target": 34962
    },
    {
      "buffer": 0,
      "byteOffset": 1968,
      "byteLength": 768,
      "byteStride": 32,
      "target": 34962
    },
    {
      "buffer": 0,
      "byteOffset": 2736,
      "byteLength": 768,
      "byteStride": 32,
      "target": 34962
    },
    {
      "buffer": 0,
      "byteOffset": 3504,
      "byteLength": 768,
      "byteStride": 32,
      "target": 34962
    },
    {
      "buffer": 0,
      "byteOffset": 4272,
      "byteLength": 768,
      "byteStride": 32,
      "target": 34962
    }
  ],
  "buffers": [
    {
      "uri": "Chrome Dinosaur Game Cactus.bin",
      "byteLength": 5040
    }
  ],
  "materials": [
    {
      "name": "material_0",
      "alphaMode": "MASK",
      "alphaCutoff": 0.05,
      "doubleSided": true,
      "pbrMetallicRoughness": {
        "baseColorFactor": [
          0.08650046202808521,
          0.08650046202808521,
          0.08650046202808521,
          1
        ],
        "metallicFactor": 0
      },
      "extensions": {
        "KHR_materials_specular": {
          "specularFactor": 0.5,
          "specularColorFactor": [
            0,
            0,
            0
          ]
        }
      }
    }
  ],
  "meshes": [
    {
      "name": "GeometryNode_6",
      "primitives": [
        {
          "attributes": {
            "POSITION": 2,
            "NORMAL": 0,
            "TEXCOORD_0": 1
          },
          "mode": 4,
          "material": 0,
          "indices": 3
        }
      ]
    },
    {
      "name": "GeometryNode_24",
      "primitives": [
        {
          "attributes": {
            "POSITION": 11,
            "NORMAL": 9,
            "TEXCOORD_0": 10
          },
          "mode": 4,
          "material": 0,
          "indices": 4
        }
      ]
    },
    {
      "name": "GeometryNode_38",
      "primitives": [
        {
          "attributes": {
            "POSITION": 14,
            "NORMAL": 12,
            "TEXCOORD_0": 13
          },
          "mode": 4,
          "material": 0,
          "indices": 5
        }
      ]
    },
    {
      "name": "GeometryNode_52",
      "primitives": [
        {
          "attributes": {
            "POSITION": 17,
            "NORMAL": 15,
            "TEXCOORD_0": 16
          },
          "mode": 4,
          "material": 0,
          "indices": 6
        }
      ]
    },
    {
      "name": "GeometryNode_66",
      "primitives": [
        {
          "attributes": {
            "POSITION": 20,
            "NORMAL": 18,
            "TEXCOORD_0": 19
          },
          "mode": 4,
          "material": 0,
          "indices": 7
        }
      ]
    },
    {
      "name": "GeometryNode_80",
      "primitives": [
        {
          "attributes": {
            "POSITION": 23,
            "NORMAL": 21,
            "TEXCOORD_0": 22
          },
          "mode": 4,
          "material": 0,
          "indices": 8
        }
      ]
    }
  ],
  "cameras": [
    {
      "name": "Camera_0",
      "type": "perspective",
      "perspective": {
        "znear": 0.8288529564989539,
        "zfar": 165.77059129979077,
        "yfov": 0.7853981633974483
      }
    }
  ],
  "nodes": [
    {
      "name": "root",
      "children": [
        1
      ]
    },
    {
      "name": "GLTF_SceneRootNode",
      "rotation": [
        0.7071067811865475,
        0,
        0,
        0.7071067811865476
      ],
      "children": [
        2
      ]
    },
    {
      "name": "_6",
      "children": [
        3,
        6,
        9,
        12,
        15,
        18
      ]
    },
    {
      "name": "cube_0",
      "children": [
        4
      ]
    },
    {
      "name": "cube",
      "children": [
        5
      ]
    },
    {
      "name": "GeometryNode_6",
      "mesh": 0
    },
    {
      "name": "cube_1",
      "children": [
        7
      ]
    },
    {
      "name": "cube",
      "children": [
        8
      ]
    },
    {
      "name": "GeometryNode_24",
      "mesh": 1
    },
    {
      "name": "cube_2",
      "children": [
        10
      ]
    },
    {
      "name": "cube",
      "children": [
        11
      ]
    },
    {
      "name": "GeometryNode_38",
      "mesh": 2
    },
    {
      "name": "cube_3",
      "translation": [
        -0.5625,
        0.75,
        0
      ],
      "children": [
        13
      ]
    },
    {
      "name": "cube",
      "children": [
        14
      ]
    },
    {
      "name": "GeometryNode_52",
      "mesh": 3
    },
    {
      "name": "cube_4",
      "translation": [
        0.3125,
        1.375,
        0
      ],
      "rotation": [
        0,
        1,
        0,
        -6.1232501447936e-17
      ],
      "children": [
        16
      ]
    },
    {
      "name": "cube",
      "children": [
        17
      ]
    },
    {
      "name": "GeometryNode_66",
      "mesh": 4
    },
    {
      "name": "cube_5",
      "translation": [
        0.3125,
        1.375,
        0
      ],
      "rotation": [
        0,
        1,
        0,
        -6.1232501447936e-17
      ],
      "children": [
        19
      ]
    },
    {
      "name": "cube",
      "children": [
        20
      ]
    },
    {
      "name": "GeometryNode_80",
      "mesh": 5
    },
    {
      "name": "Light_0",
      "extensions": {
        "KHR_lights_punctual": {
          "light": 0
        }
      }
    },
    {
      "name": "Light_1",
      "extensions": {
        "KHR_lights_punctual": {
          "light": 1
        }
      }
    },
    {
      "name": "Light_2",
      "extensions": {
        "KHR_lights_punctual": {
          "light": 2
        }
      }
    },
    {
      "name": "Camera_0",
      "camera": 0
    },
    {
      "name": "Sketchfab_model",
      "translation": [
        8.206822599277075e-8,
        -0.9925195574760437,
        -3.3318984508514404
      ],
      "rotation": [
        -0.6540674983410859,
        -0.10560538840739668,
        -0.11939148345826475,
        0.7394517450193892
      ],
      "children": [
        0,
        21,
        22,
        23,
        24
      ]
    }
  ],
  "scenes": [
    {
      "name": "Scene",
      "nodes": [
        25
      ]
    }
  ],
  "extensionsUsed": [
    "KHR_lights_punctual",
    "KHR_materials_specular"
  ],
  "extensions": {
    "KHR_lights_punctual": {
      "lights": [
        {
          "type": "directional",
          "color": [
            0.7806122448979592,
            0.7985214493960848,
            1
          ],
          "intensity": 0.96,
          "range": 2.590672997469,
          "name": "Light_0"
        },
        {
          "type": "directional",
          "color": [
            1,
            0.8783319450229073,
            0.7091836734693877
          ],
          "range": 2.590672997469,
          "name": "Light_1"
        },
        {
          "type": "directional",
          "color": [
            0.423469387755102,
            0.7352665556018328,
            1
          ],
          "intensity": 0.12,
          "range": 2.590672997469,
          "name": "Light_2"
        }
      ]
    }
  }
}